<?xml version="1.0" encoding="iso-8859-1"?>
<!-- Generator: Adobe Illustrator 19.0.0, SVG Export Plug-In . SVG Version: 6.00 Build 0)  -->
<svg version="1.1" id="&#x56FE;&#x5C42;_1" xmlns="http://www.w3.org/2000/svg" xmlns:xlink="http://www.w3.org/1999/xlink" x="0px"
	 y="0px" viewBox="0 0 6144 2048" style="enable-background:new 0 0 6144 2048;" xml:space="preserve">
<g id="XMLID_15_">
	<path id="XMLID_16_" style="fill:#4D4D4D;" d="M495.108,658.521C341.563,716.913,190.18,764.489,38.797,801.254
		C17.17,758.001,4.197,712.586-0.13,665.009c142.733-56.226,298.439-103.807,464.961-147.056
		C484.292,561.203,495.108,608.783,495.108,658.521z M521.057,1106.178c-151.383,62.715-304.928,114.618-456.307,153.545
		c-19.465-41.088-32.442-84.341-36.765-131.918c142.729-60.553,296.274-112.457,464.957-157.867
		C510.246,1013.187,521.057,1058.602,521.057,1106.178z M378.324,1698.73c-45.411,15.138-92.991,21.627-142.729,21.627
		c-19.465-142.729-32.438-285.463-41.088-430.357c49.738-10.811,99.476-17.3,151.379-17.3
		C358.863,1411.106,369.674,1551.673,378.324,1698.73z M808.681,1322.437c-36.761,121.107-80.014,257.351-131.918,404.408
		c-47.576-2.161-86.503-15.138-118.941-38.927c32.438-144.895,75.692-281.14,131.918-406.569
		C732.994,1289.999,771.92,1305.138,808.681,1322.437z M756.782,563.368c0,92.991-4.327,168.683-8.65,229.236
		c30.273,0,71.365,2.161,118.941,2.161c0-134.083,10.811-272.49,32.438-410.896c38.927,0,82.18,4.327,127.595,8.654
		c0,142.729-8.65,276.813-25.954,406.565c43.254,2.166,86.507,4.327,134.083,4.327c4.323,12.977,8.65,30.277,8.65,47.576
		s-2.161,34.604-4.327,47.576c-69.203,17.304-185.983,23.788-350.339,23.788c-69.203,0-131.918-4.323-183.821-15.138
		c-8.65-10.811-10.811-30.277-10.811-56.226c0-97.318,6.484-194.633,23.788-289.789c21.623-4.323,43.249-8.65,64.876-8.65
		C707.04,552.553,730.828,556.88,756.782,563.368z M1180.651,1056.44c4.323,12.977,8.65,34.599,8.65,62.715
		c0,34.599-4.327,56.226-8.65,64.876c-21.627,8.654-125.434,10.815-313.578,10.815c-160.033,0-246.536-2.161-259.513-10.815
		c-6.488-17.3-8.65-38.927-8.65-67.038c0-23.788,2.161-45.415,10.815-67.042c77.853-4.327,162.195-8.65,257.347-8.65
		C996.83,1041.302,1100.632,1047.79,1180.651,1056.44z M1076.844,1333.253c4.327,82.18,8.65,140.568,8.65,179.494v129.756
		c43.254,4.327,92.995,8.65,149.222,15.138v51.903c0,25.95-2.161,43.249-4.327,56.226c-30.277,2.161-67.038,4.327-110.291,4.327
		c-49.742,0-103.807-4.327-162.194-12.977c-4.327-123.268-4.327-227.075-4.327-309.251c-41.088,0-77.853,0-110.291-4.327
		c-4.327-12.977-4.327-32.438-4.327-58.388c0-21.627,0-41.092,4.327-60.553C912.488,1324.603,990.341,1328.926,1076.844,1333.253z
		 M1273.642,742.862c-38.927,21.627-75.692,32.438-114.618,36.765c-28.115-47.576-45.415-110.291-49.742-183.821
		c30.277-12.977,69.207-21.627,112.457-30.277C1245.527,604.456,1262.827,665.009,1273.642,742.862z M1623.981,556.88
		c-25.95,58.388-51.899,116.78-82.176,173.006c103.803,12.977,203.282,30.277,302.762,51.903c0,34.604-6.488,75.692-17.3,118.945
		c-116.78,0-233.559-15.138-354.666-49.742c-36.765,62.715-75.692,123.268-118.945,181.66c-51.899-8.65-90.83-32.438-116.78-67.042
		c58.392-155.706,144.895-317.901,257.351-484.422C1548.293,494.165,1591.543,517.953,1623.981,556.88z M1786.18,1108.344
		c-47.581,108.13-101.645,209.771-162.199,304.924c86.507,82.18,170.849,166.521,255.19,248.702
		c-15.138,45.411-45.415,82.176-92.991,116.78c-90.83-69.203-177.337-142.733-255.19-220.586
		c-12.973,21.627-25.95,41.088-38.927,58.392c-36.761,60.553-75.692,116.78-114.618,170.844
		c-38.927-25.95-73.526-56.226-99.48-90.83c43.254-86.503,88.668-170.844,136.245-255.186
		c-56.226-56.226-108.13-114.618-160.033-175.171c28.115-45.415,58.392-82.18,88.668-112.457
		c51.903,47.58,105.968,95.157,157.868,142.733c56.23-90.83,114.618-181.66,177.333-270.324
		C1721.299,1052.113,1758.064,1078.067,1786.18,1108.344z"/>
	<path id="XMLID_27_" style="fill:#4D4D4D;" d="M3293.535,202.214c-25.95,21.627-49.738,41.088-71.365,56.226
		c214.098,105.968,419.546,218.421,614.179,339.527c-19.465,43.254-47.576,86.503-84.342,127.595
		c-220.586-101.641-441.168-220.586-663.916-358.993c-80.019,64.88-160.033,125.429-240.052,181.66
		c-198.956,149.218-350.339,253.024-456.307,311.412c-45.415-21.627-80.014-56.226-103.803-103.803
		c270.324-220.586,562.275-430.357,878.014-629.317C3215.682,148.149,3258.936,174.099,3293.535,202.214z M2757.214,1636.015
		c-38.931,34.604-84.342,64.88-134.083,88.668c-51.903-54.065-97.318-112.457-131.918-175.171
		c38.927-30.277,84.342-60.553,136.245-88.668C2675.034,1514.908,2718.283,1573.3,2757.214,1636.015z M3075.115,777.466
		c216.26,0,369.804,4.323,458.472,8.65c2.162,19.461,4.323,41.088,4.323,62.715v67.042
		c-32.438,12.973-155.706,21.623-367.643,21.623c4.327,86.507,6.489,170.848,10.815,257.351
		c198.96,2.161,346.016,6.488,436.846,10.811c2.161,17.304,4.323,38.927,4.323,62.715v67.042
		c-38.927,12.977-183.821,21.627-436.846,23.788c4.327,129.756,6.488,261.674,6.488,400.081h2.162
		c142.733,0,242.213,2.166,300.601,8.65c2.166,17.304,4.327,38.927,4.327,64.88v64.876
		c-21.627,15.138-125.429,23.788-311.412,23.788c-190.31,0-326.555-6.484-408.735-17.3c-6.484-21.627-8.65-45.415-8.65-71.365
		c0-28.115,0-51.903,4.327-69.203c73.526-2.161,157.868-4.327,253.024-4.327c-4.327-138.406-8.65-270.324-10.815-400.081h-8.65
		c-194.633,0-335.2-6.488-419.542-19.461c-6.488-21.627-8.654-45.415-8.654-71.369c0-25.95,0-49.738,4.327-67.038
		c114.618-4.327,257.351-6.488,428.196-6.488c-2.166-88.668-2.166-175.171-2.166-257.351c-160.029,0-274.647-6.484-348.177-15.138
		c-6.489-21.623-8.65-45.415-8.65-73.526c0-25.954,0-47.576,4.327-67.042C2770.187,779.628,2908.593,777.466,3075.115,777.466z
		 M3769.308,1506.259c-19.461,69.203-49.738,136.245-88.664,205.448c-56.23-15.138-103.807-36.765-142.733-64.876
		c21.627-69.203,51.903-134.083,92.991-198.96C3687.127,1460.844,3732.542,1480.309,3769.308,1506.259z"/>
	<path id="XMLID_32_" style="fill:#4D4D4D;" d="M5250.718,738.535c12.973,64.88,21.623,155.71,21.623,274.651
		c0,142.733-8.65,237.886-21.623,281.14c-41.092,28.111-123.268,41.088-248.702,41.088c-116.779,0-207.609-2.161-272.485-6.488
		c-6.489-21.627-8.65-41.088-8.65-62.715c0-30.277,4.323-51.903,12.973-62.715c123.268-8.65,246.536-15.138,371.97-19.465
		c0-103.803-4.327-209.771-10.815-317.901c-121.103-8.65-250.859-21.627-387.104-43.254
		c-12.977,80.019-36.765,205.448-73.53,374.131c-32.438,147.056-73.526,291.951-125.429,436.846
		c-45.415,0-88.665-4.327-129.756-12.977c0-190.31,58.392-464.957,175.171-823.949c-25.95-4.323-51.903-8.65-73.53-12.977
		c0-51.899,4.327-97.314,12.977-131.918C4686.277,652.033,4939.302,682.309,5250.718,738.535z M5172.861,375.22
		c2.166,15.138,4.327,41.092,4.327,77.853c-207.609,30.277-413.057,51.903-616.34,64.88c-12.977-25.954-19.465-51.903-19.465-82.18
		v-67.042c205.448-25.95,410.896-45.415,616.34-62.715C5166.376,331.971,5172.861,353.593,5172.861,375.22z M5536.18,1158.081
		c-4.327,43.253-8.65,88.668-12.977,134.079c-15.139,155.71-34.6,307.089-56.227,456.311c-45.415,0-88.668-4.327-129.756-10.815
		c0-207.609,25.95-514.695,80.015-923.429c47.576,0,92.991,6.488,138.406,17.304c0,36.761-4.323,97.314-8.65,183.817
		c86.503-2.161,177.333-4.323,274.651-4.323c129.757,0,233.559,6.488,313.578,15.138c4.323,12.977,8.649,32.438,8.649,62.715
		c0,32.438-4.327,54.065-8.649,62.715c-15.139,6.489-71.369,10.815-168.683,10.815c15.138,198.96,23.788,397.915,23.788,601.202
		c-17.3,8.65-43.253,12.977-77.853,12.977c-28.115,0-51.903-2.166-71.369-4.327c-25.95-198.96-38.927-402.242-38.927-609.852
		C5678.91,1162.408,5590.245,1162.408,5536.18,1158.081z M6098.456,606.618c-229.236,69.203-458.473,112.457-687.709,129.756
		c-21.623-34.6-30.276-80.014-30.276-140.568c224.913-51.903,458.472-92.991,702.847-123.268
		C6091.967,515.792,6098.456,559.041,6098.456,606.618z"/>
</g>
</svg>
